<?xml version="1.0" encoding="iso-8859-1"?>
<!-- Generator: Adobe Illustrator 19.0.0, SVG Export Plug-In . SVG Version: 6.00 Build 0)  -->
<svg version="1.1" id="Layer_1" xmlns="http://www.w3.org/2000/svg" xmlns:xlink="http://www.w3.org/1999/xlink" x="0px" y="0px"
	 viewBox="0 0 504.123 504.123" style="enable-background:new 0 0 504.123 504.123;" xml:space="preserve">
<g>
	<path style="fill:#578C19;" d="M241.073,203.768c10.027,11.28,3.663,33.304-14.218,49.223
		c-17.881,15.896-114.018,85.024-124.062,73.767c-10.012-11.296,69.892-98.714,87.773-114.609
		C208.431,196.254,231.046,192.496,241.073,203.768z"/>
	<path style="fill:#578C19;" d="M263.05,203.768c-10.027,11.28-3.663,33.304,14.218,49.223
		c17.881,15.896,114.018,85.024,124.062,73.767c10.012-11.296-69.892-98.714-87.773-114.609
		C295.692,196.254,273.077,192.496,263.05,203.768z"/>
</g>
<g>
	<path style="fill:#271654;" d="M346.569,361.913c0,19.503-15.817,124.668-35.336,124.668c-19.495,0-35.304-105.173-35.304-124.668
		c0-19.495,15.817-35.32,35.304-35.32C330.752,326.593,346.569,342.418,346.569,361.913z"/>
	<path style="fill:#271654;" d="M228.218,361.913c0,19.503-15.817,124.668-35.336,124.668c-19.495,0-35.304-105.173-35.304-124.668
		c0-19.495,15.817-35.32,35.304-35.32C212.401,326.593,228.218,342.418,228.218,361.913z"/>
</g>
<g>
	<path style="fill:#65A027;" d="M351.705,315.242c0,126.33-44.599,84.259-99.643,84.259c-55.028,0-99.643,42.071-99.643-84.259
		c0-72.231,44.631-130.781,99.643-130.781C307.09,184.47,351.705,243.019,351.705,315.242z"/>
	<path style="fill:#65A027;" d="M165.904,422.085c5.506,27.301,13.32,54.705,22.166,62.354h9.602
		c8.862-7.648,16.691-35.052,22.189-62.354H165.904z"/>
	<path style="fill:#65A027;" d="M284.262,422.085c5.506,27.301,13.32,54.705,22.166,62.354h9.602
		c8.869-7.648,16.691-35.052,22.181-62.354H284.262z"/>
</g>
<path style="fill:#578C19;" d="M232.629,487.219c0,14.935-17.802,16.904-39.739,16.904s-39.739-1.961-39.739-16.904
	c0-14.943,17.802-35.509,39.739-35.509S232.629,472.277,232.629,487.219z"/>
<path style="fill:#46750A;" d="M232.629,487.219c0,14.935-17.802,16.904-39.739,16.904s-39.739-1.961-39.739-16.904"/>
<path style="fill:#578C19;" d="M350.988,487.219c0,14.935-17.802,16.904-39.739,16.904s-39.739-1.961-39.739-16.904
	c0-14.943,17.802-35.509,39.739-35.509S350.988,472.277,350.988,487.219z"/>
<path style="fill:#46750A;" d="M350.988,487.219c0,14.935-17.802,16.904-39.739,16.904s-39.739-1.961-39.739-16.904"/>
<path style="fill:#65A027;" d="M381.015,124.258c0,63.008-57.738,94.681-128.937,94.681c-71.215,0-128.969-31.673-128.969-94.681
	C123.108,61.235,180.862,0,252.077,0C323.277,0,381.015,61.235,381.015,124.258z"/>
<path style="fill:#578C19;" d="M381.015,124.258c0,63.008-57.738,100.391-128.937,100.391c-71.215,0-128.969-37.384-128.969-100.391
	"/>
<circle style="fill:#113E49;" cx="190.748" cy="121.439" r="11.532"/>
<path d="M202.279,121.439c0,6.388-5.167,11.54-11.54,11.54c-6.372,0-11.524-5.151-11.524-11.54"/>
<path style="fill:#65A027;" d="M213.496,145.495c-0.614,0-1.245-0.221-1.725-0.717c-5.632-5.624-13.107-8.72-21.047-8.72h-0.016
	c-7.94,0-15.399,3.104-21,8.712c-0.953,0.953-2.489,0.977-3.434,0.008c-0.953-0.922-0.985-2.458-0.031-3.419
	c6.538-6.546,15.218-10.161,24.458-10.161h0.016c9.263,0,17.951,3.592,24.505,10.145c0.937,0.937,0.937,2.505,0,3.434
	C214.756,145.266,214.142,145.495,213.496,145.495z"/>
<circle style="fill:#113E49;" cx="313.423" cy="121.439" r="11.532"/>
<path d="M301.859,121.439c0,6.388,5.151,11.54,11.54,11.54c6.372,0,11.524-5.151,11.524-11.54"/>
<path style="fill:#65A027;" d="M290.643,145.495c0.599,0,1.229-0.221,1.709-0.717c5.632-5.624,13.107-8.72,21.047-8.72h0.016
	c7.94,0,15.415,3.104,21.016,8.712c0.937,0.953,2.473,0.977,3.434,0.008c0.953-0.922,0.969-2.458,0.016-3.419
	c-6.506-6.546-15.218-10.161-24.458-10.161h-0.016c-9.248,0-17.936,3.592-24.505,10.145c-0.922,0.937-0.922,2.505,0,3.434
	C289.382,145.266,289.997,145.495,290.643,145.495z"/>
<path style="fill:#660A27;" d="M282.585,196.592c0,8.696-7.058,15.754-15.754,15.754h-29.538c-8.704,0-15.754-7.058-15.754-15.754
	v-52.185c0-8.696,7.05-15.754,15.754-15.754h29.538c8.696,0,15.754,7.058,15.754,15.754V196.592z"/>
<path style="fill:#890628;" d="M266.831,162.131h-29.538c-8.704,0-15.754,7.058-15.754,15.754v18.708
	c0,8.696,7.05,15.754,15.754,15.754h29.538c8.696,0,15.754-7.058,15.754-15.754v-18.708
	C282.585,169.188,275.527,162.131,266.831,162.131z"/>
<g>
	<path style="fill:#35157C;" d="M252.077,0c-42.677,0-80.4,22.063-103.881,53.256l41.819-10.264l1.969,8.862l19.692-8.862
		l11.815,14.769l10.831-19.692l32.492,37.415l-6.892-41.354l36.431,25.6l0.985-14.769l38.4,19.692L331.8,43.977l30.074,17.865
		C339.196,26.167,298.567,0,252.077,0z"/>
	<path style="fill:#35157C;" d="M153.419,344.285c6.814,90.254,48.372,55.225,98.643,55.225c50.294,0,91.837,35.029,98.643-55.225
		H153.419z"/>
</g>
<g>
</g>
<g>
</g>
<g>
</g>
<g>
</g>
<g>
</g>
<g>
</g>
<g>
</g>
<g>
</g>
<g>
</g>
<g>
</g>
<g>
</g>
<g>
</g>
<g>
</g>
<g>
</g>
<g>
</g>
</svg>
